<svg width="80" height="80" viewBox="0 0 80 80" fill="none" xmlns="http://www.w3.org/2000/svg">
<circle cx="40" cy="40" r="39.5" fill="white" stroke="#D6E6E8"/>
<path d="M51.0834 35.25C51.0834 37.5458 50.4025 39.6516 49.2309 41.4091C47.5209 43.9425 44.8134 45.7316 41.6625 46.1908C41.1242 46.2858 40.57 46.3333 40 46.3333C39.43 46.3333 38.8759 46.2858 38.3375 46.1908C35.1867 45.7316 32.4792 43.9425 30.7692 41.4091C29.5975 39.6516 28.9167 37.5458 28.9167 35.25C28.9167 29.1225 33.8725 24.1666 40 24.1666C46.1275 24.1666 51.0834 29.1225 51.0834 35.25Z" stroke="#532E88" stroke-width="2" stroke-linecap="round" stroke-linejoin="round"/>
<path d="M54.6459 50.2442L52.0334 50.8617C51.4475 51.0042 50.9884 51.4476 50.8617 52.0334L50.3075 54.3609C50.0067 55.6276 48.3917 56.0076 47.5525 55.0101L40 46.3334L32.4475 55.0259C31.6084 56.0234 29.9934 55.6434 29.6925 54.3767L29.1384 52.0492C28.9959 51.4634 28.5367 51.0042 27.9667 50.8776L25.3542 50.2601C24.1509 49.9751 23.7234 48.4709 24.5942 47.6L30.7692 41.425C32.4792 43.9584 35.1867 45.7476 38.3375 46.2067C38.8759 46.3017 39.43 46.3492 40 46.3492C40.57 46.3492 41.1242 46.3017 41.6625 46.2067C44.8134 45.7476 47.5209 43.9584 49.2309 41.425L55.4059 47.6C56.2767 48.455 55.8492 49.9592 54.6459 50.2442Z" stroke="#532E88" stroke-width="2" stroke-linecap="round" stroke-linejoin="round"/>
<path d="M40.9183 30.4684L41.8525 32.3367C41.9791 32.59 42.3116 32.8434 42.6125 32.8909L44.3066 33.1759C45.3833 33.35 45.6366 34.1417 44.8608 34.9175L43.5466 36.2317C43.325 36.4533 43.1983 36.8809 43.2775 37.1975L43.6575 38.8284C43.9583 40.1109 43.2775 40.6175 42.1375 39.9367L40.5541 39.0025C40.2691 38.8283 39.7941 38.8283 39.5091 39.0025L37.9258 39.9367C36.7858 40.6017 36.105 40.1109 36.4058 38.8284L36.7858 37.1975C36.8491 36.8967 36.7383 36.4533 36.5166 36.2317L35.2025 34.9175C34.4266 34.1417 34.68 33.3659 35.7566 33.1759L37.4508 32.8909C37.7358 32.8434 38.0683 32.59 38.195 32.3367L39.1291 30.4684C39.5883 29.455 40.4116 29.455 40.9183 30.4684Z" stroke="#532E88" stroke-width="2" stroke-linecap="round" stroke-linejoin="round"/>
</svg>
