<svg width="80" height="80" viewBox="0 0 80 80" fill="none" xmlns="http://www.w3.org/2000/svg">
<circle cx="40" cy="40" r="39.5" fill="white" stroke="#D6E6E8"/>
<path fill-rule="evenodd" clip-rule="evenodd" d="M35.3472 59.9118C34.0349 59.3942 32.7231 58.8756 31.4101 58.3594C30.9878 58.1934 30.5614 58.0379 30.1396 57.8706C29.6473 57.6755 29.5041 57.4563 29.5179 56.9179C29.5371 56.165 29.5556 55.4117 29.5902 54.6592C29.6008 54.4309 29.5459 54.2768 29.3509 54.137C28.1935 53.308 27.1723 52.332 26.2863 51.2178C26.1397 51.0334 25.9891 50.9777 25.7549 51C24.9925 51.0727 24.2277 51.1228 23.4633 51.172C22.9415 51.2057 22.7239 51.0773 22.517 50.6069C21.7913 48.9571 21.0694 47.3055 20.3512 45.6524C20.147 45.1824 20.1931 44.9626 20.5591 44.606C21.108 44.0711 21.6584 43.5377 22.2191 43.0155C22.385 42.8611 22.4577 42.717 22.4236 42.4778C22.2212 41.0584 22.1843 39.6339 22.3082 38.2035C22.3217 38.048 22.2121 37.8343 22.0906 37.7229C21.5357 37.2141 20.9546 36.7339 20.3862 36.2396C19.9682 35.8762 19.9116 35.6611 20.1106 35.1419C20.7508 33.4712 21.3936 31.8013 22.0401 30.1331C22.2257 29.6544 22.4445 29.5109 22.9597 29.5227C23.7387 29.5405 24.5175 29.5801 25.2964 29.5813C25.447 29.5816 25.6517 29.488 25.7399 29.3696C26.6058 28.2068 27.5966 27.1682 28.7161 26.247C28.8283 26.1547 28.9024 25.9431 28.8955 25.7914C28.8609 25.0394 28.7931 24.289 28.7371 23.5379C28.6923 22.9362 28.8115 22.7378 29.3791 22.4885C30.9701 21.7899 32.5613 21.092 34.1535 20.3961C34.7486 20.1361 34.9305 20.1759 35.3885 20.6519C35.9018 21.1854 36.4055 21.7287 36.9338 22.247C37.0426 22.3537 37.2495 22.434 37.3975 22.4156C38.8465 22.236 40.2956 22.1891 41.7516 22.3178C41.8773 22.3289 42.0517 22.245 42.1399 22.1478C42.6284 21.6093 43.0901 21.0464 43.5767 20.506C43.7469 20.3168 43.9614 20.1675 44.1558 20C44.2857 20 44.4155 20 44.5455 20C44.6617 20.0535 44.7755 20.1133 44.8947 20.1594C46.5022 20.782 48.1109 21.4019 49.7184 22.0249C50.269 22.2382 50.3975 22.429 50.3827 23.0214C50.3639 23.7742 50.3231 24.5269 50.3247 25.2796C50.3251 25.4402 50.4249 25.6574 50.5512 25.7521C51.7005 26.6133 52.7296 27.5947 53.6453 28.701C53.7448 28.8213 53.9689 28.903 54.1309 28.8962C54.8957 28.8641 55.6588 28.7907 56.423 28.7405C56.9669 28.7047 57.1838 28.8339 57.398 29.3221C58.1167 30.9605 58.8325 32.6 59.5455 34.2408C59.7565 34.7265 59.7103 34.9528 59.3319 35.3203C58.801 35.8361 58.275 36.3576 57.7245 36.852C57.5031 37.0508 57.4433 37.2513 57.4862 37.533C57.6981 38.9264 57.7054 40.3253 57.5914 41.7284C57.5802 41.8663 57.6645 42.0574 57.7694 42.1514C58.4442 42.756 59.1372 43.3404 59.8242 43.9314C59.8242 44.2172 59.8242 44.503 59.8242 44.7889C59.7688 44.9031 59.7048 45.0139 59.659 45.1318C59.0631 46.6666 58.4713 48.2028 57.8754 49.7375C57.6713 50.2631 57.465 50.4023 56.9063 50.3885C56.1404 50.3699 55.3747 50.3312 54.6088 50.3303C54.4583 50.33 54.2534 50.4218 54.1654 50.5398C53.2987 51.7015 52.3076 52.7396 51.1899 53.6622C51.0774 53.7551 51.0023 53.9666 51.0091 54.1186C51.0441 54.8965 51.118 55.6725 51.1655 56.4499C51.1978 56.9798 51.0719 57.1863 50.5985 57.3941C48.9602 58.1133 47.3204 58.8289 45.6796 59.5421C45.17 59.7636 44.9592 59.7186 44.5714 59.318C44.0472 58.777 43.5378 58.2213 42.9976 57.697C42.8723 57.5754 42.6392 57.4804 42.471 57.5009C41.0477 57.6735 39.6251 57.7203 38.1952 57.5964C38.048 57.5836 37.846 57.6777 37.7412 57.7894C37.0877 58.4862 36.4548 59.2022 35.815 59.9118C35.6591 59.9118 35.5032 59.9118 35.3472 59.9118ZM23.2519 31.0651C23.2705 31.0389 23.2404 31.0673 23.2269 31.1022C22.7071 32.4446 22.1828 33.7852 21.6818 35.1346C21.6419 35.242 21.7232 35.4543 21.8182 35.5421C22.3047 35.9913 22.7959 36.4393 23.3211 36.8412C23.7462 37.1667 23.8661 37.5535 23.8015 38.0636C23.6027 39.6339 23.6672 41.2 23.9413 42.7573C24.0056 43.123 23.9124 43.414 23.6387 43.6684C23.0966 44.1726 22.5721 44.6959 22.0288 45.1989C21.8699 45.3459 21.8431 45.4662 21.9331 45.668C22.4932 46.9236 23.0436 48.1835 23.5842 49.4475C23.6723 49.6535 23.7844 49.7058 23.9974 49.6863C24.7344 49.619 25.4741 49.5799 26.2111 49.5118C26.5682 49.4789 26.8449 49.5826 27.0615 49.8686C28.0736 51.2053 29.2717 52.3479 30.6573 53.2923C30.9535 53.4942 31.0784 53.7627 31.0622 54.1204C31.0293 54.8471 31.0219 55.5749 30.9842 56.3013C30.9717 56.5434 31.0329 56.6689 31.2745 56.759C32.5381 57.2306 33.7972 57.7143 35.0501 58.2131C35.292 58.3095 35.4229 58.2567 35.5759 58.0713C35.9894 57.5706 36.4418 57.1008 36.8366 56.5863C37.1608 56.1639 37.5453 56.0382 38.058 56.105C39.6281 56.3094 41.1945 56.2363 42.7517 55.9669C43.1203 55.9031 43.4088 55.9954 43.6627 56.2674C44.1589 56.7994 44.6736 57.3141 45.1655 57.8498C45.332 58.0312 45.4704 58.0632 45.6998 57.9602C46.9302 57.4076 48.1654 56.8652 49.4068 56.3377C49.6445 56.2368 49.7004 56.1118 49.6777 55.87C49.6098 55.1461 49.5737 54.4192 49.5096 53.6948C49.4781 53.3402 49.5769 53.061 49.865 52.8439C51.204 51.8343 52.3436 50.6332 53.2899 49.2492C53.4914 48.9545 53.7592 48.8264 54.1178 48.8429C54.8444 48.8762 55.5723 48.8838 56.2987 48.9212C56.5407 48.9336 56.6677 48.8706 56.7576 48.6298C57.2293 47.3664 57.7121 46.1069 58.2123 44.8545C58.3101 44.6097 58.2528 44.4842 58.0687 44.3318C57.5482 43.9014 57.0541 43.4385 56.5258 43.0183C56.1592 42.7265 56.0358 42.3836 56.0969 41.9277C56.3095 40.3446 56.2379 38.7646 55.9718 37.1949C55.9002 36.7723 56.0139 36.4701 56.3179 36.1905C56.8435 35.7067 57.3472 35.199 57.8711 34.7135C58.0287 34.5674 58.0596 34.4473 57.9688 34.2439C57.4085 32.9885 56.8578 31.7286 56.3184 30.4642C56.2297 30.2565 56.1188 30.2063 55.9073 30.2254C55.1832 30.2908 54.4561 30.3253 53.7326 30.3974C53.345 30.4359 53.0509 30.3272 52.8165 30.0156C51.8237 28.6966 50.6407 27.5749 49.2788 26.6433C48.9595 26.4249 48.8183 26.1409 48.8375 25.7523C48.8729 25.0388 48.879 24.3238 48.9157 23.6104C48.9281 23.3704 48.8695 23.2407 48.6268 23.1501C47.3634 22.6783 46.1043 22.1943 44.8517 21.6945C44.6069 21.5968 44.48 21.656 44.3276 21.8408C43.9145 22.3417 43.4614 22.811 43.0668 23.3257C42.7423 23.7491 42.357 23.8741 41.8445 23.8061C40.2876 23.5997 38.7335 23.6723 37.1896 23.9386C36.7882 24.0078 36.4849 23.9102 36.2122 23.6161C35.7176 23.0828 35.2027 22.5683 34.7083 22.0346C34.5616 21.8764 34.4409 21.8479 34.2386 21.9381C32.9831 22.4981 31.7221 23.046 30.4598 23.5908C30.2838 23.6667 30.1984 23.7517 30.2181 23.9632C30.287 24.7001 30.321 25.4404 30.3957 26.1766C30.4352 26.5665 30.3188 26.8572 30.0096 27.0908C28.6928 28.086 27.569 29.2671 26.6383 30.6297C26.4188 30.951 26.1354 31.0786 25.7476 31.0702C24.9303 31.0529 24.1126 31.0651 23.2519 31.0651Z" fill="#532E88" stroke="#532E88" stroke-width="0.5"/>
<path fill-rule="evenodd" clip-rule="evenodd" d="M52.9289 39.975C52.8619 47.1694 47.0651 52.9515 39.9422 52.929C32.7707 52.9065 26.9065 47.0033 26.9763 39.9171C27.0477 32.6573 32.9024 26.9617 39.9805 26.9891C47.234 27.0171 52.9029 32.8676 52.9289 39.975ZM47.9322 48.2191C51.1262 45.2419 52.5436 40.1157 50.5597 35.4634C48.5567 30.7655 43.7701 27.9459 38.6809 28.5069C33.6358 29.0632 29.6575 32.7943 28.6556 37.6625C27.7052 42.2803 29.8477 46.4282 31.9759 48.1619C31.9759 47.0637 31.9595 45.9885 31.9794 44.9139C32.0218 42.6202 33.6263 40.9113 35.904 40.6925C36.3182 40.6527 36.5976 40.802 36.8948 41.0909C37.3255 41.5096 37.7882 41.9447 38.32 42.2012C39.9615 42.9934 41.8226 42.5373 42.9934 41.13C43.2219 40.8553 43.4615 40.6649 43.8447 40.6811C45.6099 40.7558 47.1907 41.8978 47.6991 43.58C47.8791 44.176 47.898 44.8305 47.9233 45.4609C47.9588 46.3521 47.9322 47.2458 47.9322 48.2191ZM46.4885 47.0415C46.4885 46.3531 46.4996 45.6646 46.4861 44.9766C46.4591 43.6036 45.5681 42.4724 44.3426 42.2128C44.1285 42.1674 43.99 42.2035 43.8326 42.3634C41.6272 44.603 38.2734 44.592 36.0377 42.3566C35.9422 42.2612 35.7448 42.198 35.6119 42.2204C34.5356 42.4023 33.5416 43.377 33.4851 44.4638C33.4018 46.0697 33.4288 47.6815 33.4238 49.2908C33.4235 49.3873 33.5358 49.5137 33.629 49.5765C37.3865 52.1042 42.4683 52.1076 46.2653 49.5796C46.3777 49.5048 46.4749 49.3203 46.479 49.184C46.5001 48.4704 46.4888 47.7557 46.4885 47.0415Z" fill="#532E88" stroke="#532E88" stroke-width="0.5"/>
<path fill-rule="evenodd" clip-rule="evenodd" d="M39.9419 31.3555C42.4975 31.3555 44.5492 33.3994 44.5529 35.9488C44.5565 38.4943 42.4997 40.5628 39.9594 40.5687C37.4248 40.5745 35.348 38.5023 35.3462 35.9654C35.3443 33.4152 37.398 31.3553 39.9419 31.3555ZM36.8052 35.9478C36.7979 37.6807 38.199 39.0938 39.9346 39.1037C41.6616 39.1136 43.0704 37.7259 43.1053 35.9803C43.1395 34.2697 41.6765 32.7939 39.9485 32.7962C38.2265 32.7985 36.8124 34.2162 36.8052 35.9478Z" fill="#532E88" stroke="#532E88" stroke-width="0.5"/>
</svg>
