<svg width="80" height="80" viewBox="0 0 80 80" fill="none" xmlns="http://www.w3.org/2000/svg">
<circle cx="40" cy="40" r="39.5" fill="white" stroke="#D6E6E8"/>
<g clip-path="url(#clip0_13_577)">
<path d="M55.5325 27.2384C53.0942 33.3184 46.9825 41.5834 41.8683 45.6842L38.7492 48.1859C38.3533 48.4709 37.9575 48.7242 37.5142 48.8984C37.5142 48.6134 37.4983 48.2967 37.4508 47.9959C37.2767 46.6659 36.675 45.4309 35.6142 44.3701C34.5375 43.2934 33.2233 42.66 31.8775 42.4859C31.5608 42.47 31.2442 42.4384 30.9275 42.4701C31.1017 41.9792 31.3708 41.5201 31.7033 41.1401L34.1733 38.0209C38.2583 32.9067 46.555 26.7634 52.6192 24.3409C53.5533 23.9925 54.4558 24.2459 55.0258 24.8317C55.6275 25.4176 55.9125 26.3201 55.5325 27.2384Z" stroke="#532E88" stroke-width="2" stroke-linecap="round" stroke-linejoin="round"/>
<path d="M37.5142 48.8983C37.5142 50.6399 36.8492 52.3024 35.5984 53.5691C34.6325 54.5349 33.3184 55.1999 31.7509 55.4058L27.8559 55.8333C25.7342 56.0708 23.9134 54.2658 24.1667 52.1124L24.5942 48.2174C24.9742 44.7499 27.8717 42.5333 30.9434 42.4699C31.26 42.4541 31.5925 42.4699 31.8934 42.4858C33.2392 42.6599 34.5534 43.2774 35.63 44.3699C36.6909 45.4308 37.2925 46.6658 37.4667 47.9958C37.4825 48.2966 37.5142 48.5974 37.5142 48.8983Z" stroke="#532E88" stroke-width="2" stroke-linecap="round" stroke-linejoin="round"/>
<path d="M43.5467 43.9108C43.5467 39.7783 40.19 36.4216 36.0575 36.4216" stroke="#532E88" stroke-width="2" stroke-linecap="round" stroke-linejoin="round"/>
<path d="M52.8567 41.1558L54.0283 42.3116C56.3875 44.6708 56.3875 46.9983 54.0283 49.3574L49.3417 54.0441C47.0142 56.3716 44.655 56.3716 42.3275 54.0441" stroke="#532E88" stroke-width="2" stroke-linecap="round"/>
<path d="M25.9242 37.6407C23.5967 35.2816 23.5967 32.9541 25.9242 30.5949L30.6108 25.9082C32.9383 23.5807 35.2975 23.5807 37.625 25.9082L38.7967 27.0799" stroke="#532E88" stroke-width="2" stroke-linecap="round"/>
<path d="M38.8125 27.0959L32.9542 32.9543" stroke="#532E88" stroke-width="2" stroke-linecap="round"/>
<path d="M52.8567 41.1558L48.17 45.8266" stroke="#532E88" stroke-width="2" stroke-linecap="round"/>
</g>
<defs>
<clipPath id="clip0_13_577">
<rect width="38" height="38" fill="white" transform="translate(21 21)"/>
</clipPath>
</defs>
</svg>
