<svg width="80" height="80" viewBox="0 0 80 80" fill="none" xmlns="http://www.w3.org/2000/svg">
<circle cx="40" cy="40" r="39.5" fill="white" stroke="#D6E6E8"/>
<path fill-rule="evenodd" clip-rule="evenodd" d="M54.8732 59.9542C55.1684 59.862 55.477 59.7993 55.7566 59.6727C57.1668 59.0341 57.9254 57.9324 57.9828 56.3843C58.0164 55.4751 57.9903 54.5638 57.9903 53.6535C57.9904 47.8274 57.9905 42.0011 57.9903 36.175C57.9902 35.0673 57.5097 34.5903 56.3961 34.59C55.6824 34.5899 54.9686 34.5899 54.2428 34.5899C54.2252 34.4336 54.2133 34.3054 54.1959 34.178C54.1133 33.5718 53.6508 33.1229 53.038 33.1172C51.4777 33.1026 49.9169 33.1073 48.3564 33.1142C47.97 33.1159 47.7157 33.3748 47.7245 33.7112C47.7333 34.0469 47.9872 34.2791 48.3836 34.2808C49.7752 34.2865 51.1667 34.2832 52.5582 34.2834C52.6987 34.2834 52.8392 34.2834 53.0094 34.2834C53.0094 40.3286 53.0094 46.3397 53.0094 52.3944C52.8164 52.3944 52.6378 52.3944 52.4591 52.3944C51.2627 52.3944 50.0662 52.3973 48.8698 52.3927C48.5574 52.3914 48.2952 52.4735 48.1763 52.7851C48.0201 53.1946 48.3194 53.5604 48.8156 53.5628C50.0641 53.5685 51.3125 53.5649 52.561 53.565C52.7012 53.565 52.8412 53.565 53.0236 53.565C53.0236 54.352 53.0337 55.101 53.0109 55.8489C53.0081 55.9436 52.8418 56.0474 52.7327 56.1187C52.6773 56.1551 52.5808 56.1301 52.5028 56.1301C48.6144 56.1304 44.7259 56.1304 40.8374 56.1297C40.7355 56.1296 40.6335 56.1193 40.531 56.1137C40.6368 54.9416 41.7387 53.7877 43.0071 53.6421C43.9065 53.5389 44.8231 53.5849 45.7321 53.5653C45.9011 53.5617 46.0706 53.5701 46.2392 53.5603C46.5768 53.5408 46.7731 53.3454 46.7957 53.0204C46.8186 52.6903 46.6272 52.4182 46.3108 52.4198C45.0662 52.4268 43.817 52.4275 42.5793 52.5395C41.7641 52.6132 41.0959 53.1137 40.4371 53.7305C40.4371 53.5187 40.4371 53.382 40.4371 53.2453C40.4371 50.9956 40.4371 48.7457 40.4371 46.4959C40.4371 46.4049 40.4401 46.3137 40.4362 46.2229C40.4191 45.8308 40.19 45.5862 39.8459 45.5896C39.5022 45.593 39.2713 45.8371 39.269 46.2348C39.2624 47.3663 39.2666 48.4976 39.2665 49.6291C39.2665 50.9661 39.2665 52.3031 39.2665 53.7042C39.1468 53.6085 39.0703 53.5516 38.9985 53.4895C38.1582 52.7621 37.1828 52.3952 36.0716 52.3948C33.1065 52.3936 30.1415 52.3943 27.1763 52.3943C27.0227 52.3943 26.8692 52.3943 26.6639 52.3943C26.6639 52.2065 26.6639 52.0557 26.6639 51.9047C26.6639 49.3818 26.664 46.8589 26.6635 44.336C26.6635 44.206 26.6681 44.0751 26.6544 43.9463C26.6171 43.5929 26.3978 43.3881 26.0722 43.391C25.7479 43.3938 25.5367 43.5991 25.4982 43.9572C25.4872 44.0601 25.4903 44.1649 25.4903 44.2688C25.4899 48.0273 25.489 51.7857 25.4907 55.5441C25.4912 56.7403 26.061 57.3008 27.2662 57.3008C35.6673 57.301 44.0685 57.301 52.4697 57.3008C53.6417 57.3008 54.2128 56.7309 54.2131 55.5516C54.2144 49.1532 54.2137 42.7548 54.2137 36.3565C54.2137 36.1755 54.2137 35.9944 54.2137 35.7625C55.0287 35.7625 55.8178 35.7568 56.6063 35.7721C56.678 35.7734 56.775 35.8992 56.8097 35.9872C56.8452 36.0774 56.819 36.1922 56.819 36.2961C56.819 42.8765 56.8192 49.457 56.819 56.0375C56.8189 57.8107 55.8443 58.7833 54.0671 58.7834C44.6125 58.7835 35.158 58.7836 25.7035 58.7834C23.9307 58.7833 22.9627 57.8094 22.9626 56.0263C22.9625 49.4459 22.9625 42.8653 22.9626 36.285C22.9626 35.7606 22.9631 35.7605 23.4986 35.7603C24.1461 35.7602 24.7934 35.7603 25.4895 35.7603C25.4895 35.9483 25.4895 36.0997 25.4895 36.251C25.4896 37.8767 25.4891 39.5023 25.4904 41.1278C25.4905 41.2705 25.4882 41.4155 25.5113 41.5553C25.5636 41.8696 25.7683 42.0397 26.0781 42.0391C26.3871 42.0383 26.5935 41.8707 26.6437 41.5547C26.666 41.4146 26.6631 41.2697 26.6632 41.127C26.6643 39.0202 26.664 36.9134 26.664 34.8066C26.664 34.6519 26.664 34.497 26.664 34.2832C26.8316 34.2832 26.9689 34.2832 27.106 34.2832C28.4845 34.2832 29.863 34.2803 31.2415 34.2854C31.5355 34.2864 31.7882 34.2267 31.9226 33.9376C32.1023 33.5509 31.84 33.1212 31.3871 33.1174C29.8007 33.1039 28.2138 33.1006 26.6275 33.1197C26.0374 33.1268 25.5904 33.5838 25.5081 34.177C25.4904 34.3045 25.4778 34.4327 25.4594 34.5898C24.709 34.5898 23.9694 34.5877 23.2298 34.5904C22.3318 34.5937 21.7928 35.1229 21.7925 36.019C21.7902 42.7685 21.7874 49.5181 21.7937 56.2675C21.7956 58.1119 22.9742 59.5282 24.7696 59.8922C24.818 59.902 24.8622 59.9329 24.9083 59.9541C34.8963 59.9542 44.8847 59.9542 54.8732 59.9542ZM26.6683 53.5871C26.8223 53.5776 26.9241 53.566 27.0257 53.566C30.03 53.565 33.0342 53.5637 36.0384 53.5682C36.2839 53.5687 36.5325 53.5951 36.7742 53.6393C37.99 53.8617 39.0713 54.9765 39.1721 56.1137C39.0697 56.1193 38.9678 56.1297 38.8659 56.1298C34.9774 56.1305 31.0888 56.1305 27.2002 56.1304C27.1482 56.1304 27.0962 56.1299 27.0442 56.1295C26.8073 56.1275 26.6733 56.0028 26.6709 55.7717C26.6637 55.058 26.6683 54.3442 26.6683 53.5871Z" fill="#532E88" stroke="#532E88" stroke-width="0.3"/>
<path fill-rule="evenodd" clip-rule="evenodd" d="M39.0321 20.0002C38.5654 20.1011 38.0926 20.1798 37.6329 20.3062C32.1649 21.8111 29.7427 28.189 32.8241 32.9476C34.0317 34.8126 35.2352 36.6805 36.4253 38.5566C36.5484 38.7507 36.6195 39.0097 36.6246 39.2405C36.6379 39.8519 36.8086 40.3589 37.3441 40.7113C37.4295 40.7676 37.4867 40.9172 37.4961 41.029C37.5221 41.3391 37.4946 41.6542 37.5263 41.9633C37.6246 42.9244 38.3447 43.6089 39.3048 43.6591C39.6548 43.6774 40.0072 43.6772 40.3574 43.6615C41.3604 43.6166 42.0862 42.9224 42.1835 41.9266C42.1962 41.7976 42.2039 41.6665 42.1966 41.5373C42.173 41.1174 42.1822 40.7554 42.6172 40.473C43.0086 40.2189 43.0475 39.7376 43.0778 39.2815C43.0948 39.0244 43.1635 38.7408 43.2992 38.5264C44.4872 36.6489 45.7309 34.8056 46.8811 32.9057C47.3456 32.1385 47.6317 31.261 47.973 30.4231C48.0925 30.1299 48.0543 29.8248 47.7429 29.6347C47.4076 29.43 46.9826 29.5876 46.8864 30.003C46.6107 31.1948 45.9735 32.1986 45.3179 33.2019C44.2876 34.7792 43.2866 36.3756 42.2526 37.9504C41.9989 38.3369 41.8461 38.72 41.8889 39.1856C41.9038 39.3478 41.8471 39.5166 41.8232 39.6824C41.7686 39.6768 41.7139 39.6713 41.6593 39.6657C41.7791 37.5975 41.899 35.5293 42.0218 33.4092C42.2903 33.4092 42.534 33.4227 42.7758 33.4068C43.6729 33.348 44.3754 32.6447 44.4173 31.7751C44.4629 30.8286 43.871 30.045 43.0054 29.906C42.091 29.7591 41.2517 30.2735 41.029 31.1522C40.9438 31.4885 40.9379 31.845 40.8929 32.2166C40.2332 32.2166 39.5765 32.2166 38.8802 32.2166C38.8583 31.9882 38.8341 31.7598 38.8148 31.531C38.7323 30.5455 37.9905 29.8527 37.0441 29.8788C36.0935 29.905 35.3666 30.6586 35.3614 31.623C35.3561 32.6057 36.069 33.3632 37.0486 33.4094C37.2682 33.4198 37.4887 33.411 37.7576 33.411C37.8814 35.5253 38.004 37.6159 38.1266 39.7067C38.0783 39.7212 38.03 39.7356 37.9817 39.7501C37.9239 39.6057 37.8029 39.4536 37.8191 39.3182C37.8932 38.7034 37.6302 38.2252 37.3089 37.7346C36.1273 35.9303 34.9734 34.1078 33.8033 32.2958C30.9197 27.8293 33.6944 21.8838 38.968 21.2335C42.9362 20.7442 46.5158 23.5434 47.0013 27.5154C47.0092 27.5799 47.0176 27.6446 47.0323 27.7077C47.1178 28.0718 47.3671 28.2562 47.7037 28.2067C48.0183 28.1604 48.2447 27.9153 48.1713 27.5611C48.0007 26.739 47.8823 25.8809 47.5494 25.1222C46.276 22.2199 44.0321 20.5358 40.8875 20.0683C40.8135 20.0572 40.743 20.0232 40.6707 20C40.1246 20.0002 39.5783 20.0002 39.0321 20.0002ZM40.8476 33.4291C40.7219 35.5574 40.5987 37.6403 40.4755 39.7261C40.0641 39.7261 39.7036 39.7261 39.3038 39.7261C39.1808 37.6198 39.0589 35.5284 38.9364 33.4291C39.6001 33.4291 40.1943 33.4291 40.8476 33.4291ZM40.978 40.9315C41.1197 41.7021 41.0255 42.1693 40.6926 42.382C40.4088 42.5633 39.1955 42.5515 38.9614 42.3437C38.5069 41.9405 38.7297 41.4179 38.6772 40.9315C39.4866 40.9315 40.234 40.9315 40.978 40.9315ZM42.0865 32.2209C42.1057 31.9883 42.1198 31.7856 42.1398 31.5836C42.1725 31.2513 42.3569 31.0613 42.6918 31.0591C43.007 31.0572 43.1942 31.2365 43.2425 31.5453C43.2937 31.8724 43.1189 32.1602 42.804 32.2135C42.5832 32.251 42.3508 32.2209 42.0865 32.2209ZM37.6883 32.2508C37.408 32.234 37.1597 32.2548 36.9314 32.1968C36.6069 32.1145 36.4939 31.8497 36.5415 31.5348C36.5879 31.2271 36.7853 31.0526 37.1006 31.059C37.4149 31.0656 37.6017 31.2408 37.6372 31.5562C37.6612 31.7693 37.6694 31.984 37.6883 32.2508Z" fill="#532E88" stroke="#532E88" stroke-width="0.3"/>
<path fill-rule="evenodd" clip-rule="evenodd" d="M47.0687 45.5859C46.0417 45.586 45.0149 45.5841 43.988 45.5869C43.529 45.5882 43.2597 45.8013 43.2529 46.1558C43.246 46.5154 43.5189 46.7542 43.9649 46.7548C46.0578 46.7582 48.1506 46.7558 50.2435 46.7567C50.5449 46.7569 50.8213 46.6537 50.8701 46.3496C50.9017 46.1528 50.8126 45.8922 50.6872 45.7299C50.6018 45.6195 50.3607 45.5939 50.1885 45.592C49.1487 45.58 48.1087 45.5859 47.0687 45.5859Z" fill="#532E88" stroke="#532E88" stroke-width="0.3"/>
<path fill-rule="evenodd" clip-rule="evenodd" d="M32.6277 45.586C31.5877 45.586 30.5477 45.5838 29.5078 45.5872C29.039 45.5886 28.7923 45.7933 28.7916 46.1662C28.7909 46.5351 29.0476 46.7545 29.5059 46.7551C31.5727 46.758 33.6397 46.7576 35.7067 46.7555C36.1815 46.7549 36.4622 46.5199 36.4502 46.1489C36.4387 45.7953 36.1709 45.588 35.7087 45.587C34.6816 45.5843 33.6546 45.586 32.6277 45.586Z" fill="#532E88" stroke="#532E88" stroke-width="0.3"/>
<path fill-rule="evenodd" clip-rule="evenodd" d="M47.0839 43.8927C48.1239 43.8929 49.1639 43.8958 50.2038 43.8915C50.6693 43.8896 50.9159 43.6775 50.9119 43.303C50.9079 42.9371 50.6505 42.7205 50.1892 42.7197C48.1224 42.7165 46.0555 42.7164 43.9887 42.7198C43.5062 42.7207 43.2103 42.9949 43.2566 43.3758C43.2949 43.6909 43.5374 43.8885 43.9252 43.8905C44.9781 43.8961 46.031 43.8924 47.0839 43.8927Z" fill="#532E88" stroke="#532E88" stroke-width="0.3"/>
<path fill-rule="evenodd" clip-rule="evenodd" d="M32.62 43.8929C33.647 43.8929 34.6739 43.8951 35.7009 43.892C36.1807 43.8904 36.4607 43.6631 36.4509 43.297C36.4414 42.9408 36.1708 42.7203 35.714 42.7195C33.647 42.7164 31.58 42.7163 29.5131 42.7196C29.0514 42.7204 28.7944 42.9374 28.7912 43.3036C28.7881 43.678 29.0346 43.8895 29.5 43.8913C30.54 43.8958 31.58 43.8928 32.62 43.8929Z" fill="#532E88" stroke="#532E88" stroke-width="0.3"/>
<path fill-rule="evenodd" clip-rule="evenodd" d="M47.1097 49.6014C48.0974 49.6014 49.0849 49.6019 50.0727 49.6009C50.1895 49.6008 50.308 49.6054 50.4228 49.5877C50.7179 49.5425 50.8883 49.3641 50.9076 49.0664C50.928 48.7528 50.7804 48.5387 50.4714 48.4648C50.3348 48.4322 50.1882 48.4323 50.0461 48.4322C48.0708 48.4303 46.0954 48.4305 44.1201 48.4319C43.9908 48.432 43.8583 48.4309 43.7328 48.4569C43.4253 48.5208 43.2488 48.7252 43.2597 49.0343C43.271 49.3593 43.4607 49.5654 43.7964 49.5922C44.0161 49.6097 44.2379 49.6009 44.4587 49.601C45.3423 49.6019 46.226 49.6014 47.1097 49.6014Z" fill="#532E88" stroke="#532E88" stroke-width="0.3"/>
<path fill-rule="evenodd" clip-rule="evenodd" d="M32.6209 49.6012C33.6475 49.6013 34.6742 49.6035 35.7008 49.6002C36.1838 49.5987 36.4605 49.3746 36.4502 49.0073C36.4403 48.6519 36.1732 48.4337 35.712 48.4328C33.6456 48.4289 31.5793 48.4286 29.5131 48.433C29.0433 48.434 28.7955 48.646 28.7921 49.0157C28.7888 49.3923 29.0295 49.5977 29.5019 49.5998C30.5415 49.6043 31.5812 49.6012 32.6209 49.6012Z" fill="#532E88" stroke="#532E88" stroke-width="0.3"/>
<path fill-rule="evenodd" clip-rule="evenodd" d="M48.5119 40.9135C49.4217 40.9135 50.3314 40.9151 51.2412 40.9129C51.7018 40.9117 51.9688 40.7042 51.9805 40.3472C51.9926 39.9765 51.7131 39.7443 51.2378 39.7438C49.4183 39.7418 47.5988 39.7418 45.7793 39.7438C45.3165 39.7442 45.0532 39.9519 45.0422 40.3115C45.0306 40.6861 45.3045 40.9117 45.7827 40.9128C46.6925 40.915 47.6022 40.9135 48.5119 40.9135Z" fill="#532E88" stroke="#532E88" stroke-width="0.3"/>
<path fill-rule="evenodd" clip-rule="evenodd" d="M31.2159 40.9136C32.1256 40.9136 33.0352 40.9157 33.945 40.9127C34.3974 40.9111 34.6634 40.6888 34.6615 40.3263C34.6594 39.9653 34.3931 39.7447 33.9388 39.7441C32.1063 39.7418 30.2737 39.7416 28.4413 39.7442C27.9918 39.7448 27.7199 39.974 27.722 40.3327C27.724 40.6915 27.9937 40.9113 28.4478 40.9127C29.3704 40.9155 30.2931 40.9136 31.2159 40.9136Z" fill="#532E88" stroke="#532E88" stroke-width="0.3"/>
<path fill-rule="evenodd" clip-rule="evenodd" d="M27.641 22.7166C27.774 22.9243 27.844 23.0983 27.9681 23.2149C28.3557 23.5796 28.7574 23.93 29.1659 24.2713C29.47 24.5253 29.8076 24.501 30.0296 24.2367C30.2344 23.9929 30.2078 23.6473 29.9401 23.402C29.5381 23.0337 29.1407 22.6552 28.7029 22.3333C28.5442 22.2164 28.2505 22.1753 28.0634 22.2368C27.8961 22.2918 27.7907 22.5354 27.641 22.7166Z" fill="#532E88" stroke="#532E88" stroke-width="0.3"/>
<path fill-rule="evenodd" clip-rule="evenodd" d="M51.4524 22.0875C51.235 22.203 51.0729 22.2581 50.9499 22.3603C50.5605 22.6839 50.1817 23.0208 49.8066 23.361C49.4982 23.6406 49.4564 23.9947 49.686 24.2506C49.9235 24.5152 50.2554 24.5154 50.5823 24.2354C50.9867 23.889 51.4063 23.555 51.7696 23.1688C51.9007 23.0294 51.97 22.731 51.9175 22.5482C51.8664 22.3699 51.6238 22.2467 51.4524 22.0875Z" fill="#532E88" stroke="#532E88" stroke-width="0.3"/>
<path fill-rule="evenodd" clip-rule="evenodd" d="M50.0552 26.9191C49.9216 27.0257 49.6844 27.1259 49.6159 27.2946C49.5465 27.4657 49.5655 27.7813 49.6819 27.8998C50.1262 28.3524 50.6095 28.7714 51.1109 29.1611C51.3504 29.3474 51.6395 29.2735 51.8417 29.0328C52.0323 28.806 52.0618 28.5264 51.8509 28.3237C51.3839 27.8743 50.884 27.4587 50.3907 27.0373C50.327 26.983 50.2229 26.976 50.0552 26.9191Z" fill="#532E88" stroke="#532E88" stroke-width="0.3"/>
<path fill-rule="evenodd" clip-rule="evenodd" d="M29.6197 26.8878C29.4167 27.0001 29.2672 27.0548 29.1527 27.1511C28.7546 27.4851 28.3634 27.8278 27.9796 28.1783C27.6751 28.4563 27.6398 28.7709 27.8609 29.0366C28.0885 29.3103 28.4379 29.3226 28.7562 29.051C29.1615 28.7053 29.5838 28.3733 29.9437 27.9843C30.0815 27.8355 30.1507 27.5229 30.0972 27.3272C30.0492 27.1518 29.7898 27.0342 29.6197 26.8878Z" fill="#532E88" stroke="#532E88" stroke-width="0.3"/>
</svg>
