<svg width="80" height="80" viewBox="0 0 80 80" fill="none" xmlns="http://www.w3.org/2000/svg">
<circle cx="40" cy="40" r="39.5" fill="white" stroke="#D6E6E8"/>
<path d="M49.5 32.3366C49.405 32.3208 49.2942 32.3208 49.1992 32.3366C47.0142 32.2575 45.2725 30.4683 45.2725 28.2516C45.2725 25.9875 47.0933 24.1666 49.3575 24.1666C51.6217 24.1666 53.4425 26.0033 53.4425 28.2516C53.4267 30.4683 51.685 32.2575 49.5 32.3366Z" stroke="#532E88" stroke-width="2" stroke-linecap="round" stroke-linejoin="round"/>
<path d="M47.8692 43.8633C50.0383 44.2275 52.4292 43.8475 54.1075 42.7233C56.34 41.235 56.34 38.7966 54.1075 37.3083C52.4133 36.1841 49.9908 35.8041 47.8217 36.1841" stroke="#532E88" stroke-width="2" stroke-linecap="round" stroke-linejoin="round"/>
<path d="M30.4525 32.3366C30.5475 32.3208 30.6583 32.3208 30.7533 32.3366C32.9383 32.2575 34.68 30.4683 34.68 28.2516C34.68 25.9875 32.8591 24.1666 30.595 24.1666C28.3308 24.1666 26.51 26.0033 26.51 28.2516C26.5258 30.4683 28.2675 32.2575 30.4525 32.3366Z" stroke="#532E88" stroke-width="2" stroke-linecap="round" stroke-linejoin="round"/>
<path d="M32.0833 43.8633C29.9142 44.2275 27.5233 43.8475 25.845 42.7233C23.6125 41.235 23.6125 38.7966 25.845 37.3083C27.5392 36.1841 29.9617 35.8041 32.1308 36.1841" stroke="#532E88" stroke-width="2" stroke-linecap="round" stroke-linejoin="round"/>
<path d="M40 44.1641C39.905 44.1483 39.7942 44.1483 39.6992 44.1641C37.5142 44.085 35.7725 42.2958 35.7725 40.0791C35.7725 37.815 37.5934 35.9941 39.8575 35.9941C42.1217 35.9941 43.9425 37.8308 43.9425 40.0791C43.9267 42.2958 42.185 44.1008 40 44.1641Z" stroke="#532E88" stroke-width="2" stroke-linecap="round" stroke-linejoin="round"/>
<path d="M35.3925 49.1517C33.16 50.64 33.16 53.0784 35.3925 54.5667C37.9258 56.2609 42.0742 56.2609 44.6075 54.5667C46.84 53.0784 46.84 50.64 44.6075 49.1517C42.09 47.4734 37.9258 47.4734 35.3925 49.1517Z" stroke="#532E88" stroke-width="2" stroke-linecap="round" stroke-linejoin="round"/>
</svg>
