<svg width="80" height="80" viewBox="0 0 80 80" fill="none" xmlns="http://www.w3.org/2000/svg">
<circle cx="40" cy="40" r="39.5" fill="white" stroke="#D6E6E8"/>
<path fill-rule="evenodd" clip-rule="evenodd" d="M40.0065 22.0074C44.2837 22.0074 48.561 22.0122 52.838 22C53.2692 21.9987 53.5223 22.1558 53.7209 22.5502C54.7398 24.5743 55.7846 26.5844 56.8052 28.6076C56.9186 28.8325 56.9867 29.1093 56.9888 29.3626C57.004 31.2245 57.0009 33.0865 56.9959 34.9484C56.991 36.8216 56.2066 37.8844 54.4662 38.4179C54.379 38.4446 54.3037 38.5783 54.2625 38.6795C54.2292 38.7618 54.2554 38.87 54.2554 38.9668C54.2554 43.9723 54.2531 48.9778 54.2567 53.9833C54.2579 55.6682 53.5685 56.9266 52.0843 57.639C51.6329 57.8555 51.0967 57.9802 50.5987 57.9817C43.5286 58.0033 36.4583 58.0053 29.388 57.9903C27.3899 57.986 25.7857 56.3606 25.76 54.2956C25.7229 51.3098 25.7467 48.3232 25.7455 45.3369C25.7446 43.1606 25.7415 40.9843 25.7503 38.808C25.7514 38.5474 25.6879 38.4441 25.4241 38.376C23.9665 38.0001 23.046 36.8469 23.0201 35.2986C22.9862 33.2681 23.0039 31.2365 23.011 29.2053C23.0115 29.0335 23.0725 28.8473 23.151 28.6926C24.2041 26.6189 25.2694 24.5517 26.3206 22.477C26.4948 22.1334 26.7331 22.0017 27.1047 22.0024C31.4053 22.0104 35.7059 22.0074 40.0065 22.0074ZM29.0157 37.1254C28.5527 37.777 27.9325 38.1968 27.1809 38.3736C26.9045 38.4386 26.8634 38.5615 26.8636 38.8117C26.869 43.8903 26.8648 48.9689 26.8694 54.0476C26.8709 55.7275 27.9542 56.834 29.5803 56.836C31.2516 56.8381 32.923 56.8368 34.5943 56.8358C34.7064 56.8357 34.8184 56.8251 34.9489 56.8185C34.9489 56.6418 34.9489 56.4982 34.9489 56.3546C34.9493 53.392 34.9448 50.4295 34.9528 47.467C34.9558 46.3501 35.2473 45.3185 35.9049 44.4177C37.2696 42.5483 39.9684 41.8653 42.1482 42.8638C44.0533 43.7364 45.0116 45.3035 45.0397 47.4308C45.079 50.4169 45.0506 53.404 45.0512 56.3908C45.0512 56.5312 45.0512 56.6714 45.0512 56.8165C45.1401 56.8262 45.1853 56.8352 45.2303 56.8352C47.0302 56.8357 48.8301 56.8401 50.63 56.8294C50.871 56.8279 51.1198 56.7778 51.351 56.7036C52.4732 56.3435 53.1341 55.3461 53.1348 54.0139C53.1375 48.9594 53.136 43.9049 53.1359 38.8506C53.1359 38.766 53.1519 38.6754 53.128 38.5985C53.1069 38.5308 53.0484 38.4372 52.9926 38.4253C52.1629 38.2495 51.4907 37.8115 50.9702 37.1186C49.6343 38.9118 46.9017 38.9861 45.4733 37.1208C44.7769 38.0356 43.861 38.4885 42.7411 38.4908C41.622 38.4931 40.7124 38.0285 40.008 37.1304C38.7002 38.8683 35.9667 39.0223 34.5162 37.1497C33.2004 38.8913 30.434 39.0085 29.0157 37.1254ZM55.4772 28.522C55.4524 28.453 55.4415 28.4079 55.4209 28.3678C54.5693 26.7033 53.7122 25.0418 52.8703 23.3719C52.7627 23.1583 52.6168 23.1673 52.4405 23.1673C44.1448 23.1685 35.849 23.1693 27.5533 23.1628C27.3247 23.1627 27.2016 23.2276 27.0937 23.4416C26.2895 25.0364 25.4714 26.6238 24.659 28.2141C24.6118 28.3066 24.5758 28.4053 24.5256 28.522C34.8532 28.522 45.1504 28.522 55.4772 28.522ZM43.8951 56.8191C43.9105 56.7711 43.9237 56.7491 43.9237 56.7271C43.9229 53.559 43.9441 50.3905 43.9073 47.2227C43.8942 46.0993 43.4436 45.1186 42.5435 44.4418C41.1654 43.4055 39.6615 43.2884 38.1371 44.0213C36.6624 44.7303 36.0674 46.0308 36.0699 47.6707C36.0744 50.5971 36.0711 53.5236 36.0711 56.45C36.0711 56.5674 36.0711 56.6849 36.0711 56.8191C38.6967 56.8191 41.2871 56.8191 43.8951 56.8191ZM39.432 29.7247C37.9677 29.7247 36.5392 29.7247 35.104 29.7247C35.0961 29.7935 35.086 29.84 35.086 29.8866C35.0861 31.6738 35.0736 33.4612 35.0927 35.2481C35.1058 36.4755 35.9706 37.3073 37.2009 37.3284C38.463 37.3501 39.394 36.5592 39.4213 35.3315C39.4625 33.4738 39.432 31.6145 39.432 29.7247ZM29.6521 29.7103C29.631 29.7637 29.6152 29.7852 29.6152 29.8066C29.6157 31.6809 29.5904 33.5556 29.6316 35.4288C29.6499 36.2596 30.1162 36.8556 30.8711 37.1607C32.1027 37.6584 33.9912 37.1538 33.9664 34.9956C33.9474 33.3512 33.9626 31.7063 33.9626 30.0617C33.9626 29.9471 33.9626 29.8324 33.9626 29.7103C32.4924 29.7103 31.0797 29.7103 29.6521 29.7103ZM46.0815 29.7107C46.06 29.7635 46.0437 29.7848 46.0437 29.8061C46.0427 31.6441 46.02 33.4825 46.0533 35.3199C46.0686 36.1735 46.4933 36.8189 47.2772 37.1469C48.5808 37.6924 50.4336 37.0826 50.3976 35.0319C50.3682 33.3636 50.3921 31.6943 50.3907 30.0254C50.3906 29.9224 50.3749 29.8196 50.366 29.7108C48.92 29.7107 47.5071 29.7107 46.0815 29.7107ZM44.8991 29.7206C43.4508 29.7206 42.0224 29.7206 40.6007 29.7206C40.5842 29.7606 40.5679 29.7816 40.5679 29.8028C40.5666 31.6502 40.5393 33.4982 40.5782 35.3448C40.5971 36.2456 41.0745 36.887 41.9154 37.1909C43.1786 37.6475 44.9551 37.0529 44.92 35.0179C44.8915 33.3641 44.9145 31.7094 44.9136 30.0551C44.9135 29.9493 44.9046 29.8437 44.8991 29.7206ZM51.5347 29.7198C51.5347 31.6357 51.5092 33.5197 51.5465 35.4025C51.5627 36.2142 52.0009 36.8141 52.7357 37.1368C53.9833 37.6848 55.9004 37.1416 55.8765 35.0578C55.8574 33.3774 55.8732 31.6966 55.8721 30.0161C55.872 29.9228 55.8586 29.8296 55.8501 29.7198C54.4101 29.7198 52.9887 29.7198 51.5347 29.7198ZM24.1471 29.7171C24.1471 31.6638 24.1168 33.5739 24.1612 35.4821C24.1803 36.2988 24.6668 36.8697 25.4071 37.1669C27.0029 37.8078 28.4731 36.7803 28.4828 35.015C28.4919 33.3464 28.4851 31.6779 28.4837 30.0093C28.4836 29.9164 28.4684 29.8235 28.4591 29.7171C27.0178 29.7171 25.5968 29.7171 24.1471 29.7171Z" fill="#532E88" stroke="#532E88" stroke-width="0.6"/>
</svg>
