<svg width="24" height="24" viewBox="0 0 24 24" fill="none" xmlns="http://www.w3.org/2000/svg">
<path d="M20.25 5.62492H16.8591C16.7601 4.40418 16.2053 3.26541 15.305 2.4351C14.4046 1.6048 13.2247 1.1438 12 1.1438C10.7753 1.1438 9.59538 1.6048 8.69504 2.4351C7.79471 3.26541 7.23989 4.40418 7.14094 5.62492H3.75C3.25272 5.62492 2.77581 5.82247 2.42417 6.1741C2.07254 6.52573 1.875 7.00264 1.875 7.49992V18.7499C1.875 19.2472 2.07254 19.7241 2.42417 20.0757C2.77581 20.4274 3.25272 20.6249 3.75 20.6249H20.25C20.7473 20.6249 21.2242 20.4274 21.5758 20.0757C21.9275 19.7241 22.125 19.2472 22.125 18.7499V7.49992C22.125 7.00264 21.9275 6.52573 21.5758 6.1741C21.2242 5.82247 20.7473 5.62492 20.25 5.62492ZM12 3.37492C12.6312 3.37499 13.2412 3.60247 13.7183 4.0157C14.1954 4.42892 14.5076 5.00022 14.5978 5.62492H9.40219C9.49236 5.00022 9.80459 4.42892 10.2817 4.0157C10.7588 3.60247 11.3688 3.37499 12 3.37492ZM19.875 18.3749H4.125V7.87492H19.875V18.3749Z" fill="#545454"/>
</svg>
