<svg width="24" height="25" viewBox="0 0 24 25" fill="none" xmlns="http://www.w3.org/2000/svg">
<g clip-path="url(#clip0_361_2070)">
<path d="M0.69347 12.3564C0.692912 14.3729 1.2198 16.3418 2.22166 18.0773L0.597656 24.0067L6.66575 22.4157C8.3441 23.3294 10.2246 23.8081 12.1355 23.8082H12.1405C18.4489 23.8082 23.5841 18.6749 23.5868 12.3654C23.588 9.30804 22.3984 6.43307 20.2371 4.27009C18.0762 2.1073 15.2022 0.91558 12.1401 0.914185C5.83096 0.914185 0.696168 6.04721 0.693563 12.3564" fill="url(#paint0_linear_361_2070)"/>
<path d="M0.285082 12.3527C0.284431 14.4417 0.830198 16.481 1.86778 18.2786L0.185547 24.4207L6.47122 22.7726C8.20313 23.7168 10.1531 24.2147 12.1373 24.2154H12.1424C18.6771 24.2154 23.9967 18.8975 23.9995 12.3621C24.0006 9.19488 22.7682 6.21656 20.5297 3.97609C18.2909 1.73591 15.3142 0.501302 12.1424 0.5C5.60657 0.5 0.287686 5.81721 0.285082 12.3527ZM4.02834 17.969L3.79364 17.5965C2.80704 16.0277 2.28629 14.2149 2.28704 12.3534C2.28917 6.9213 6.71001 2.50186 12.1461 2.50186C14.7787 2.50298 17.2527 3.52921 19.1135 5.39116C20.9743 7.2533 21.9982 9.72865 21.9975 12.3614C21.9951 17.7935 17.5742 22.2135 12.1424 22.2135H12.1385C10.3698 22.2126 8.63522 21.7376 7.12248 20.84L6.76248 20.6265L3.03243 21.6045L4.02834 17.9689V17.969Z" fill="url(#paint1_linear_361_2070)"/>
<path d="M9.17858 7.39746C8.95663 6.90416 8.72305 6.89421 8.51198 6.88556C8.33914 6.87811 8.14156 6.87867 7.94416 6.87867C7.74658 6.87867 7.42556 6.953 7.15421 7.24928C6.88258 7.54583 6.11719 8.26249 6.11719 9.72007C6.11719 11.1777 7.17886 12.5864 7.32686 12.7843C7.47505 12.9817 9.37644 16.0686 12.3878 17.2562C14.8905 18.243 15.3998 18.0468 15.943 17.9973C16.4862 17.948 17.6959 17.2808 17.9427 16.589C18.1897 15.8973 18.1897 15.3043 18.1156 15.1804C18.0416 15.057 17.844 14.9829 17.5477 14.8348C17.2513 14.6866 15.7948 13.9698 15.5232 13.871C15.2516 13.7722 15.0541 13.7229 14.8565 14.0195C14.659 14.3157 14.0916 14.9829 13.9187 15.1804C13.7459 15.3785 13.573 15.4031 13.2768 15.255C12.9803 15.1063 12.0262 14.7938 10.8942 13.7846C10.0135 12.9993 9.41886 12.0296 9.24602 11.7329C9.07319 11.4367 9.22751 11.2762 9.37607 11.1285C9.50919 10.9958 9.67244 10.7826 9.82072 10.6096C9.96844 10.4366 10.0177 10.3132 10.1165 10.1156C10.2154 9.91783 10.1659 9.74481 10.092 9.59663C10.0177 9.44844 9.44202 7.98323 9.17858 7.39746Z" fill="white"/>
</g>
<defs>
<linearGradient id="paint0_linear_361_2070" x1="1150.05" y1="2310.17" x2="1150.05" y2="0.914185" gradientUnits="userSpaceOnUse">
<stop stop-color="#1FAF38"/>
<stop offset="1" stop-color="#60D669"/>
</linearGradient>
<linearGradient id="paint1_linear_361_2070" x1="1190.88" y1="2392.57" x2="1190.88" y2="0.5" gradientUnits="userSpaceOnUse">
<stop stop-color="#F9F9F9"/>
<stop offset="1" stop-color="white"/>
</linearGradient>
<clipPath id="clip0_361_2070">
<rect width="23.814" height="24" fill="white" transform="translate(0.185547 0.5)"/>
</clipPath>
</defs>
</svg>
