<svg width="124" height="124" viewBox="0 0 124 124" fill="none" xmlns="http://www.w3.org/2000/svg">
<path d="M96.375 35.4375H82.2461C81.8338 30.3511 79.522 25.6062 75.7707 22.1466C72.0193 18.687 67.1031 16.7661 62 16.7661C56.8969 16.7661 51.9807 18.687 48.2293 22.1466C44.478 25.6062 42.1662 30.3511 41.7539 35.4375H27.625C25.553 35.4375 23.5659 36.2606 22.1007 37.7257C20.6356 39.1909 19.8125 41.178 19.8125 43.25V90.125C19.8125 92.197 20.6356 94.1841 22.1007 95.6493C23.5659 97.1144 25.553 97.9375 27.625 97.9375H96.375C98.447 97.9375 100.434 97.1144 101.899 95.6493C103.364 94.1841 104.188 92.197 104.188 90.125V43.25C104.188 41.178 103.364 39.1909 101.899 37.7257C100.434 36.2606 98.447 35.4375 96.375 35.4375ZM62 26.0625C64.6299 26.0628 67.1717 27.0106 69.1596 28.7324C71.1475 30.4542 72.4485 32.8346 72.8242 35.4375H51.1758C51.5515 32.8346 52.8525 30.4542 54.8404 28.7324C56.8283 27.0106 59.3701 26.0628 62 26.0625ZM94.8125 88.5625H29.1875V44.8125H94.8125V88.5625Z" fill="#545454"/>
</svg>
