<svg width="124" height="124" viewBox="0 0 124 124" fill="none" xmlns="http://www.w3.org/2000/svg">
<path d="M103.906 40.9375C103.408 39.0876 102.433 37.401 101.079 36.0464C99.7241 34.6917 98.0374 33.7167 96.1875 33.2188C89.375 31.375 62 31.375 62 31.375C62 31.375 34.625 31.375 27.8125 33.2188C25.9627 33.7167 24.276 34.6917 22.9214 36.0464C21.5668 37.401 20.5917 39.0876 20.0938 40.9375C18.8217 47.8852 18.2044 54.9369 18.25 62C18.2044 69.063 18.8217 76.1148 20.0938 83.0625C20.5917 84.9124 21.5668 86.599 22.9214 87.9536C24.276 89.3082 25.9627 90.2833 27.8125 90.7812C34.625 92.625 62 92.625 62 92.625C62 92.625 89.375 92.625 96.1875 90.7812C98.0374 90.2833 99.7241 89.3082 101.079 87.9536C102.433 86.599 103.408 84.9124 103.906 83.0625C105.178 76.1148 105.796 69.063 105.75 62C105.796 54.9369 105.178 47.8852 103.906 40.9375ZM53.25 75.125V48.875L75.9688 62L53.25 75.125Z" fill="#545454"/>
</svg>
