<svg width="89" height="90" viewBox="0 0 89 90" fill="none" xmlns="http://www.w3.org/2000/svg">
<g clip-path="url(#clip0_560_1829)">
<path d="M87.0394 2.12155C88.125 2.91102 88.569 3.96365 88.3717 5.27944L75.7401 81.0689C75.5756 82.0229 75.0493 82.763 74.1611 83.2893C73.7006 83.5525 73.1908 83.684 72.6315 83.684C72.2697 83.684 71.875 83.6018 71.4473 83.4373L45.444 72.8288L30.7401 88.9636C30.148 89.6544 29.375 89.9998 28.421 89.9998C27.9605 89.9998 27.5822 89.934 27.2861 89.8025C26.6611 89.5722 26.1677 89.1857 25.8059 88.6429C25.444 88.1002 25.2631 87.4998 25.2631 86.8419V64.5393L1.97365 55.0163C0.756547 54.5558 0.0986517 53.6511 -3.24621e-05 52.3025C-0.0987167 51.0196 0.427599 50.0492 1.57891 49.3913L83.6842 2.02286C84.8355 1.33207 85.9539 1.36497 87.0394 2.12155ZM70.1644 76.0854L81.069 10.8058L10.3125 51.6117L26.8914 58.3715L69.4736 26.8419L45.8881 66.1676L70.1644 76.0854Z" fill="#512D89"/>
</g>
<defs>
<clipPath id="clip0_560_1829">
<rect width="88.4211" height="90" fill="white"/>
</clipPath>
</defs>
</svg>
